# Blender v2.63 (sub 0) OBJ File: ''
# www.blender.org
o Text
v 0.294160 0.053850 0.207878
v 0.033160 0.053861 0.207864
v 0.069264 0.053855 0.164388
v 0.101646 0.053850 0.124210
v 0.130416 0.053845 0.086963
v 0.155687 0.053841 0.052278
v 0.177568 0.053837 0.019787
v 0.196171 0.053833 -0.010878
v 0.211608 0.053829 -0.040084
v 0.223989 0.053826 -0.068200
v 0.233426 0.053823 -0.095594
v 0.240029 0.053820 -0.122635
v 0.243910 0.053817 -0.149689
v 0.245180 0.053815 -0.177125
v 0.243438 0.053812 -0.207785
v 0.238318 0.053809 -0.236653
v 0.229982 0.053807 -0.263563
v 0.218593 0.053805 -0.288349
v 0.204316 0.053803 -0.310843
v 0.187313 0.053802 -0.330878
v 0.167748 0.053801 -0.348289
v 0.145783 0.053801 -0.362908
v 0.121581 0.053801 -0.374569
v 0.095307 0.053801 -0.383105
v 0.067122 0.053802 -0.388350
v 0.037191 0.053803 -0.390136
v 0.023520 0.053803 -0.389698
v 0.009988 0.053804 -0.388378
v -0.003434 0.053805 -0.386169
v -0.016772 0.053806 -0.383065
v -0.030055 0.053807 -0.379057
v -0.043309 0.053808 -0.374140
v -0.056564 0.053809 -0.368307
v -0.069847 0.053810 -0.361549
v -0.083186 0.053812 -0.353861
v -0.096607 0.053813 -0.345236
v -0.110140 0.053814 -0.335666
v -0.123812 0.053816 -0.325145
v -0.123819 0.053828 -0.202145
v -0.110170 0.053826 -0.218659
v -0.096715 0.053824 -0.233263
v -0.083441 0.053822 -0.246049
v -0.070334 0.053820 -0.257105
v -0.057380 0.053819 -0.266522
v -0.044565 0.053818 -0.274390
v -0.031875 0.053816 -0.280801
v -0.019296 0.053815 -0.285843
v -0.006814 0.053814 -0.289607
v 0.005584 0.053814 -0.292184
v 0.017913 0.053813 -0.293664
v 0.030186 0.053812 -0.294136
v 0.046563 0.053812 -0.293049
v 0.062117 0.053811 -0.289862
v 0.076733 0.053811 -0.284681
v 0.090297 0.053811 -0.277615
v 0.102694 0.053812 -0.268771
v 0.113809 0.053812 -0.258257
v 0.123529 0.053813 -0.246181
v 0.131739 0.053814 -0.232649
v 0.138323 0.053815 -0.217771
v 0.143167 0.053817 -0.201653
v 0.146158 0.053818 -0.184404
v 0.147180 0.053820 -0.166130
v 0.146845 0.053821 -0.152334
v 0.145845 0.053823 -0.139343
v 0.144177 0.053824 -0.127005
v 0.141843 0.053825 -0.115168
v 0.138843 0.053826 -0.103677
v 0.135176 0.053828 -0.092381
v 0.130842 0.053829 -0.081127
v 0.125841 0.053830 -0.069761
v 0.120174 0.053831 -0.058132
v 0.113840 0.053833 -0.046086
v 0.106839 0.053834 -0.033470
v 0.099172 0.053836 -0.020133
v 0.083756 0.053839 0.005104
v 0.066683 0.053842 0.031180
v 0.048215 0.053846 0.057896
v 0.028611 0.053849 0.085049
v 0.008132 0.053853 0.112438
v -0.012962 0.053856 0.139861
v -0.034409 0.053860 0.167118
v -0.055951 0.053864 0.194007
v -0.077325 0.053867 0.220327
v -0.098273 0.053870 0.245875
v -0.118533 0.053874 0.270452
v -0.137845 0.053877 0.293855
v -0.137845 0.053877 0.300855
v 0.294155 0.053859 0.300878
vn 0.000043 1.000000 -0.000093
vn 0.000043 1.000000 -0.000099
vn 0.000043 1.000000 -0.000097
vn 0.000043 1.000000 -0.000098
s off
f 27//1 25//1 26//1
f 28//2 25//2 27//2
f 29//3 25//3 28//3
f 29//4 24//4 25//4
f 30//3 24//3 29//3
f 30//3 23//3 24//3
f 31//4 23//4 30//4
f 32//3 23//3 31//3
f 32//3 22//3 23//3
f 33//3 22//3 32//3
f 34//3 22//3 33//3
f 34//3 21//3 22//3
f 35//3 21//3 34//3
f 36//3 21//3 35//3
f 36//3 20//3 21//3
f 37//3 20//3 36//3
f 38//3 20//3 37//3
f 38//3 19//3 20//3
f 39//3 40//3 38//3
f 40//3 41//3 38//3
f 41//3 42//3 38//3
f 42//3 43//3 38//3
f 43//3 44//3 38//3
f 44//3 45//3 38//3
f 45//3 46//3 38//3
f 46//3 47//3 38//3
f 47//3 48//3 38//3
f 48//3 49//3 38//3
f 49//3 50//3 38//3
f 50//4 51//4 38//4
f 51//3 19//3 38//3
f 51//3 18//3 19//3
f 52//4 18//4 51//4
f 53//3 18//3 52//3
f 54//3 18//3 53//3
f 54//3 17//3 18//3
f 55//3 17//3 54//3
f 56//3 17//3 55//3
f 57//3 17//3 56//3
f 57//3 16//3 17//3
f 58//3 16//3 57//3
f 59//3 16//3 58//3
f 59//3 15//3 16//3
f 60//3 15//3 59//3
f 61//3 15//3 60//3
f 61//3 14//3 15//3
f 62//3 14//3 61//3
f 63//3 14//3 62//3
f 63//3 13//3 14//3
f 64//3 13//3 63//3
f 65//3 13//3 64//3
f 65//3 12//3 13//3
f 66//3 12//3 65//3
f 67//3 12//3 66//3
f 67//3 11//3 12//3
f 68//3 11//3 67//3
f 69//3 11//3 68//3
f 69//3 10//3 11//3
f 70//3 10//3 69//3
f 71//3 10//3 70//3
f 72//3 10//3 71//3
f 72//3 9//3 10//3
f 73//3 9//3 72//3
f 74//3 9//3 73//3
f 74//3 8//3 9//3
f 75//3 8//3 74//3
f 76//3 8//3 75//3
f 76//3 7//3 8//3
f 77//3 7//3 76//3
f 77//3 6//3 7//3
f 78//3 6//3 77//3
f 78//3 5//3 6//3
f 79//3 5//3 78//3
f 80//3 5//3 79//3
f 80//3 4//3 5//3
f 81//3 4//3 80//3
f 81//3 3//3 4//3
f 82//3 3//3 81//3
f 82//3 2//3 3//3
f 83//3 2//3 82//3
f 84//3 2//3 83//3
f 84//3 1//3 2//3
f 89//3 1//3 84//3
f 85//3 89//3 84//3
f 86//3 89//3 85//3
f 87//3 89//3 86//3
f 88//3 89//3 87//3
