# Blender v2.63 (sub 0) OBJ File: ''
# www.blender.org
o Text
v 0.226191 0.053795 -0.390126
v 0.184191 0.053797 -0.390128
v -0.160831 0.053852 0.031853
v -0.160833 0.053857 0.076853
v 0.128167 0.053844 0.076869
v 0.128155 0.053866 0.300869
v 0.226155 0.053862 0.300874
v 0.226167 0.053840 0.076874
v 0.299167 0.053837 0.076878
v 0.299171 0.053828 -0.011122
v 0.226171 0.053832 -0.011126
v 0.126182 0.053817 -0.205131
v 0.128182 0.053817 -0.205131
v 0.128171 0.053836 -0.011131
v -0.029829 0.053842 -0.011140
vn 0.000043 1.000000 -0.000097
vn 0.000048 0.995103 -0.098839
vn 0.000050 0.988311 -0.152449
s off
f 3//1 1//1 2//1
f 12//1 1//1 3//1
f 13//1 1//1 12//1
f 11//1 1//1 13//1
f 3//1 15//1 12//1
f 14//1 11//1 13//1
f 3//1 14//1 15//1
f 3//1 11//1 14//1
f 3//1 10//1 11//1
f 3//1 9//1 10//1
f 4//1 9//1 3//1
f 5//2 9//2 4//2
f 6//1 8//1 5//1
f 8//3 9//3 5//3
f 6//1 7//1 8//1
