# Blender v2.63 (sub 0) OBJ File: ''
# www.blender.org
o Text
v -0.090815 0.053820 -0.268143
v -0.079366 0.053819 -0.273124
v -0.068472 0.053818 -0.277581
v -0.058064 0.053817 -0.281532
v -0.048073 0.053817 -0.284992
v -0.038430 0.053816 -0.287981
v -0.029064 0.053815 -0.290515
v -0.019906 0.053815 -0.292611
v -0.010888 0.053814 -0.294287
v -0.001939 0.053814 -0.295560
v 0.007010 0.053813 -0.296448
v 0.016029 0.053813 -0.296968
v 0.025186 0.053812 -0.297137
v 0.042633 0.053812 -0.296332
v 0.058927 0.053811 -0.293954
v 0.073999 0.053811 -0.290056
v 0.087778 0.053811 -0.284689
v 0.100197 0.053811 -0.277905
v 0.111185 0.053811 -0.269757
v 0.120673 0.053812 -0.260297
v 0.128591 0.053813 -0.249576
v 0.134871 0.053813 -0.237647
v 0.139442 0.053815 -0.224561
v 0.142235 0.053816 -0.210372
v 0.143181 0.053817 -0.195130
v 0.142243 0.053819 -0.180158
v 0.139430 0.053820 -0.166270
v 0.134741 0.053822 -0.153506
v 0.128178 0.053823 -0.141909
v 0.119740 0.053824 -0.131521
v 0.109427 0.053826 -0.122382
v 0.097239 0.053827 -0.114536
v 0.083176 0.053828 -0.108022
v 0.067239 0.053829 -0.102884
v 0.049426 0.053831 -0.099163
v 0.029738 0.053832 -0.096900
v 0.008176 0.053833 -0.096138
v 0.008171 0.053841 -0.006138
v 0.031420 0.053840 -0.006223
v 0.052666 0.053840 -0.004080
v 0.071905 0.053839 0.000147
v 0.089133 0.053839 0.006311
v 0.104348 0.053839 0.014267
v 0.117544 0.053840 0.023868
v 0.128720 0.053840 0.034969
v 0.137872 0.053841 0.047425
v 0.144996 0.053842 0.061088
v 0.150088 0.053843 0.075814
v 0.153146 0.053845 0.091457
v 0.154165 0.053846 0.107870
v 0.153279 0.053848 0.123879
v 0.150668 0.053849 0.138861
v 0.146397 0.053851 0.152745
v 0.140532 0.053852 0.165462
v 0.133140 0.053854 0.176943
v 0.124286 0.053855 0.187119
v 0.114036 0.053856 0.195919
v 0.102456 0.053858 0.203275
v 0.089613 0.053859 0.209117
v 0.075571 0.053860 0.213375
v 0.060398 0.053861 0.215981
v 0.044159 0.053861 0.216864
v 0.031658 0.053862 0.216509
v 0.019150 0.053862 0.215442
v 0.006628 0.053863 0.213659
v -0.005915 0.053863 0.211158
v -0.018485 0.053863 0.207934
v -0.031090 0.053863 0.203985
v -0.043737 0.053864 0.199307
v -0.056432 0.053864 0.193896
v -0.069183 0.053863 0.187749
v -0.081996 0.053863 0.180862
v -0.094879 0.053863 0.173232
v -0.107838 0.053863 0.164856
v -0.107844 0.053873 0.270856
v -0.095595 0.053873 0.276876
v -0.083353 0.053873 0.282427
v -0.071126 0.053873 0.287499
v -0.058919 0.053873 0.292081
v -0.046740 0.053873 0.296163
v -0.034595 0.053873 0.299735
v -0.022492 0.053873 0.302786
v -0.010438 0.053872 0.305306
v 0.001561 0.053872 0.307284
v 0.013497 0.053872 0.308710
v 0.025364 0.053871 0.309573
v 0.037154 0.053871 0.309864
v 0.067854 0.053869 0.308123
v 0.096831 0.053868 0.303006
v 0.123905 0.053866 0.294681
v 0.148897 0.053863 0.283314
v 0.171624 0.053861 0.269072
v 0.191907 0.053859 0.252122
v 0.209566 0.053856 0.232630
v 0.224419 0.053853 0.210763
v 0.236286 0.053850 0.186687
v 0.244986 0.053847 0.160569
v 0.250340 0.053844 0.132577
v 0.252165 0.053841 0.102875
v 0.251537 0.053840 0.085384
v 0.249630 0.053838 0.068028
v 0.246418 0.053837 0.050984
v 0.241873 0.053835 0.034430
v 0.235966 0.053834 0.018543
v 0.228671 0.053833 0.003499
v 0.219958 0.053832 -0.010524
v 0.209802 0.053831 -0.023349
v 0.198173 0.053830 -0.034799
v 0.185043 0.053830 -0.044698
v 0.170386 0.053830 -0.052867
v 0.154174 0.053830 -0.059130
v 0.168910 0.053828 -0.067830
v 0.182147 0.053827 -0.076990
v 0.193925 0.053826 -0.086690
v 0.204287 0.053824 -0.097016
v 0.213274 0.053823 -0.108050
v 0.220927 0.053821 -0.119876
v 0.227289 0.053820 -0.132577
v 0.232401 0.053818 -0.146237
v 0.236304 0.053817 -0.160938
v 0.239041 0.053815 -0.176764
v 0.240653 0.053813 -0.193799
v 0.241182 0.053811 -0.212125
v 0.239558 0.053809 -0.238315
v 0.234768 0.053807 -0.262811
v 0.226936 0.053805 -0.285501
v 0.216187 0.053803 -0.306275
v 0.202646 0.053802 -0.325021
v 0.186439 0.053801 -0.341628
v 0.167690 0.053801 -0.355986
v 0.146524 0.053800 -0.367982
v 0.123066 0.053800 -0.377507
v 0.097441 0.053801 -0.384448
v 0.069775 0.053802 -0.388695
v 0.040191 0.053803 -0.390136
v 0.027683 0.053803 -0.389948
v 0.015627 0.053804 -0.389378
v 0.003973 0.053804 -0.388419
v -0.007327 0.053805 -0.387064
v -0.018322 0.053806 -0.385307
v -0.029059 0.053806 -0.383140
v -0.039588 0.053807 -0.380556
v -0.049957 0.053808 -0.377548
v -0.060216 0.053809 -0.374110
v -0.070412 0.053809 -0.370234
v -0.080593 0.053810 -0.365914
v -0.090810 0.053811 -0.361143
vn 0.000043 1.000000 -0.000098
vn 0.000043 1.000000 -0.000096
vn 0.000043 1.000000 -0.000097
vn 0.000044 1.000000 -0.000093
vn 0.000043 1.000000 -0.000099
s off
f 136//1 134//1 135//1
f 137//1 134//1 136//1
f 138//2 134//2 137//2
f 138//3 133//3 134//3
f 139//2 133//2 138//2
f 140//1 133//1 139//1
f 141//3 133//3 140//3
f 141//3 132//3 133//3
f 142//2 132//2 141//2
f 143//3 132//3 142//3
f 144//3 132//3 143//3
f 144//3 131//3 132//3
f 145//3 131//3 144//3
f 146//3 131//3 145//3
f 146//3 130//3 131//3
f 147//3 130//3 146//3
f 1//3 2//3 147//3
f 2//3 3//3 147//3
f 3//3 4//3 147//3
f 4//3 5//3 147//3
f 5//3 6//3 147//3
f 6//3 7//3 147//3
f 7//3 8//3 147//3
f 8//3 130//3 147//3
f 8//3 129//3 130//3
f 8//4 9//4 129//4
f 9//1 10//1 129//1
f 10//3 128//3 129//3
f 10//5 11//5 128//5
f 11//5 12//5 128//5
f 12//3 13//3 128//3
f 13//3 127//3 128//3
f 13//3 14//3 127//3
f 14//3 126//3 127//3
f 15//2 126//2 14//2
f 16//3 126//3 15//3
f 17//3 126//3 16//3
f 17//3 125//3 126//3
f 18//3 125//3 17//3
f 19//3 125//3 18//3
f 20//3 125//3 19//3
f 20//3 124//3 125//3
f 21//3 124//3 20//3
f 22//3 124//3 21//3
f 22//3 123//3 124//3
f 23//3 123//3 22//3
f 24//3 123//3 23//3
f 24//3 122//3 123//3
f 25//3 122//3 24//3
f 26//3 122//3 25//3
f 26//3 121//3 122//3
f 27//3 121//3 26//3
f 27//3 120//3 121//3
f 28//3 120//3 27//3
f 28//3 119//3 120//3
f 29//3 119//3 28//3
f 29//3 118//3 119//3
f 30//3 118//3 29//3
f 30//3 117//3 118//3
f 31//3 117//3 30//3
f 32//3 117//3 31//3
f 32//3 116//3 117//3
f 33//3 116//3 32//3
f 33//3 115//3 116//3
f 34//3 115//3 33//3
f 35//3 115//3 34//3
f 36//2 115//2 35//2
f 36//3 114//3 115//3
f 37//3 114//3 36//3
f 38//3 114//3 37//3
f 38//3 113//3 114//3
f 38//1 112//1 113//1
f 38//3 111//3 112//3
f 38//3 110//3 111//3
f 38//3 109//3 110//3
f 38//3 108//3 109//3
f 38//3 107//3 108//3
f 38//3 106//3 107//3
f 38//3 39//3 106//3
f 39//3 105//3 106//3
f 40//5 105//5 39//5
f 41//2 105//2 40//2
f 42//1 105//1 41//1
f 42//3 104//3 105//3
f 43//3 104//3 42//3
f 44//3 104//3 43//3
f 44//3 103//3 104//3
f 45//3 103//3 44//3
f 45//3 102//3 103//3
f 46//3 102//3 45//3
f 47//3 102//3 46//3
f 47//3 101//3 102//3
f 48//3 101//3 47//3
f 48//3 100//3 101//3
f 49//3 100//3 48//3
f 49//3 99//3 100//3
f 50//3 99//3 49//3
f 50//3 98//3 99//3
f 51//3 98//3 50//3
f 52//3 98//3 51//3
f 52//3 97//3 98//3
f 53//3 97//3 52//3
f 54//3 97//3 53//3
f 54//3 96//3 97//3
f 75//3 73//3 74//3
f 55//3 96//3 54//3
f 75//3 72//3 73//3
f 56//3 96//3 55//3
f 75//3 71//3 72//3
f 56//3 95//3 96//3
f 57//3 95//3 56//3
f 75//3 70//3 71//3
f 75//3 69//3 70//3
f 58//3 95//3 57//3
f 75//3 68//3 69//3
f 59//3 95//3 58//3
f 75//3 67//3 68//3
f 75//3 66//3 67//3
f 60//3 95//3 59//3
f 60//3 94//3 95//3
f 75//3 65//3 66//3
f 61//3 94//3 60//3
f 75//3 64//3 65//3
f 75//3 63//3 64//3
f 62//3 94//3 61//3
f 75//3 62//3 63//3
f 75//3 94//3 62//3
f 75//3 93//3 94//3
f 75//3 92//3 93//3
f 75//3 91//3 92//3
f 76//3 91//3 75//3
f 77//3 91//3 76//3
f 78//1 91//1 77//1
f 78//3 90//3 91//3
f 79//2 90//2 78//2
f 80//1 90//1 79//1
f 80//3 89//3 90//3
f 81//3 89//3 80//3
f 82//3 89//3 81//3
f 83//3 89//3 82//3
f 83//3 88//3 89//3
f 84//2 88//2 83//2
f 85//1 88//1 84//1
f 85//1 87//1 88//1
f 86//3 87//3 85//3
