# Blender v2.63 (sub 0) OBJ File: ''
# www.blender.org
o Text
v 0.232191 0.053795 -0.381126
v -0.070809 0.053808 -0.381142
v -0.070828 0.053843 -0.026142
v -0.034615 0.053841 -0.033003
v -0.001040 0.053839 -0.035791
v 0.029798 0.053838 -0.034808
v 0.057802 0.053837 -0.030357
v 0.082876 0.053837 -0.022739
v 0.104921 0.053837 -0.012257
v 0.123842 0.053837 0.000787
v 0.139540 0.053838 0.016092
v 0.151919 0.053839 0.033354
v 0.160881 0.053840 0.052273
v 0.166329 0.053842 0.072546
v 0.168166 0.053844 0.093871
v 0.166861 0.053846 0.110366
v 0.163067 0.053848 0.126246
v 0.156960 0.053849 0.141355
v 0.148718 0.053851 0.155537
v 0.138518 0.053853 0.168635
v 0.126536 0.053854 0.180494
v 0.112951 0.053856 0.190957
v 0.097938 0.053858 0.199867
v 0.081675 0.053859 0.207069
v 0.064340 0.053860 0.212407
v 0.046109 0.053861 0.215724
v 0.027159 0.053862 0.216863
v 0.014660 0.053863 0.216509
v 0.002164 0.053863 0.215450
v -0.010325 0.053863 0.213690
v -0.022803 0.053864 0.211231
v -0.035268 0.053864 0.208078
v -0.047715 0.053864 0.204234
v -0.060141 0.053864 0.199703
v -0.072543 0.053864 0.194488
v -0.084917 0.053864 0.188592
v -0.097260 0.053864 0.182019
v -0.109568 0.053864 0.174772
v -0.121838 0.053864 0.166856
v -0.121843 0.053874 0.267856
v -0.107330 0.053874 0.274985
v -0.093233 0.053874 0.281385
v -0.079469 0.053874 0.287077
v -0.065956 0.053873 0.292081
v -0.052609 0.053873 0.296418
v -0.039345 0.053873 0.300110
v -0.026081 0.053873 0.303177
v -0.012734 0.053873 0.305639
v 0.000779 0.053872 0.307518
v 0.014543 0.053872 0.308835
v 0.028640 0.053871 0.309610
v 0.043154 0.053871 0.309864
v 0.074641 0.053869 0.307983
v 0.104465 0.053867 0.302469
v 0.132421 0.053865 0.293525
v 0.158304 0.053863 0.281352
v 0.181910 0.053860 0.266151
v 0.203033 0.053858 0.248123
v 0.221468 0.053855 0.227470
v 0.237012 0.053852 0.204393
v 0.249458 0.053849 0.179094
v 0.258603 0.053846 0.151774
v 0.264240 0.053843 0.122634
v 0.266166 0.053840 0.091876
v 0.264229 0.053837 0.061025
v 0.258493 0.053834 0.031649
v 0.249077 0.053832 0.004016
v 0.236098 0.053830 -0.021607
v 0.219674 0.053829 -0.044952
v 0.199924 0.053827 -0.065752
v 0.176966 0.053827 -0.083740
v 0.150917 0.053826 -0.098649
v 0.121895 0.053826 -0.110210
v 0.090020 0.053827 -0.118156
v 0.055407 0.053828 -0.122221
v 0.018177 0.053830 -0.122137
v 0.018186 0.053813 -0.293137
v 0.232186 0.053804 -0.293126
vn 0.000043 1.000000 -0.000097
vn 0.000042 1.000000 -0.000099
vn 0.000043 1.000000 -0.000096
vn 0.000043 1.000000 -0.000098
vn 0.000043 1.000000 -0.000095
s off
f 3//1 77//1 2//1
f 77//1 1//1 2//1
f 78//1 1//1 77//1
f 3//1 76//1 77//1
f 76//1 74//1 75//1
f 3//1 74//1 76//1
f 3//1 73//1 74//1
f 3//1 72//1 73//1
f 3//1 71//1 72//1
f 3//2 4//2 71//2
f 4//1 70//1 71//1
f 4//3 5//3 70//3
f 5//1 69//1 70//1
f 5//4 6//4 69//4
f 6//1 68//1 69//1
f 7//4 68//4 6//4
f 8//1 68//1 7//1
f 9//1 68//1 8//1
f 9//1 67//1 68//1
f 10//1 67//1 9//1
f 11//1 67//1 10//1
f 11//1 66//1 67//1
f 12//1 66//1 11//1
f 12//1 65//1 66//1
f 13//1 65//1 12//1
f 14//1 65//1 13//1
f 14//1 64//1 65//1
f 15//1 64//1 14//1
f 15//1 63//1 64//1
f 16//1 63//1 15//1
f 17//1 63//1 16//1
f 17//1 62//1 63//1
f 18//1 62//1 17//1
f 19//1 62//1 18//1
f 19//1 61//1 62//1
f 20//1 61//1 19//1
f 40//1 38//1 39//1
f 21//1 61//1 20//1
f 40//1 37//1 38//1
f 21//1 60//1 61//1
f 22//1 60//1 21//1
f 40//1 36//1 37//1
f 40//1 35//1 36//1
f 23//1 60//1 22//1
f 40//1 34//1 35//1
f 40//1 33//1 34//1
f 24//1 60//1 23//1
f 40//1 32//1 33//1
f 24//1 59//1 60//1
f 25//1 59//1 24//1
f 40//1 31//1 32//1
f 40//1 30//1 31//1
f 26//1 59//1 25//1
f 40//1 29//1 30//1
f 40//1 28//1 29//1
f 27//1 59//1 26//1
f 40//1 27//1 28//1
f 40//1 59//1 27//1
f 40//1 58//1 59//1
f 40//1 57//1 58//1
f 40//1 56//1 57//1
f 41//1 56//1 40//1
f 42//1 56//1 41//1
f 42//1 55//1 56//1
f 43//1 55//1 42//1
f 44//1 55//1 43//1
f 45//1 55//1 44//1
f 45//1 54//1 55//1
f 46//1 54//1 45//1
f 47//4 54//4 46//4
f 47//1 53//1 54//1
f 48//3 53//3 47//3
f 49//3 53//3 48//3
f 50//1 53//1 49//1
f 50//4 52//4 53//4
f 51//5 52//5 50//5
