# Blender v2.63 (sub 0) OBJ File: ''
# www.blender.org
o Text
v 0.145191 0.053798 -0.390130
v 0.102636 0.053803 -0.359598
v 0.063507 0.053808 -0.327112
v 0.027858 0.053813 -0.292840
v -0.004260 0.053818 -0.256953
v -0.032795 0.053822 -0.219622
v -0.057695 0.053827 -0.181016
v -0.078907 0.053832 -0.141306
v -0.096379 0.053837 -0.100662
v -0.110061 0.053841 -0.059253
v -0.119898 0.053846 -0.017251
v -0.125839 0.053850 0.025175
v -0.127833 0.053854 0.067855
v -0.126008 0.053858 0.102867
v -0.120637 0.053861 0.135782
v -0.111885 0.053863 0.166419
v -0.099914 0.053865 0.194597
v -0.084887 0.053867 0.220138
v -0.066967 0.053869 0.242858
v -0.046318 0.053870 0.262579
v -0.023103 0.053870 0.279120
v 0.002515 0.053871 0.292300
v 0.030372 0.053870 0.301938
v 0.060307 0.053870 0.307854
v 0.092154 0.053868 0.309867
v 0.119007 0.053867 0.307974
v 0.144891 0.053865 0.302467
v 0.169546 0.053864 0.293605
v 0.192711 0.053861 0.281650
v 0.214127 0.053859 0.266861
v 0.233533 0.053857 0.249499
v 0.250667 0.053854 0.229825
v 0.265271 0.053851 0.208098
v 0.277083 0.053848 0.184580
v 0.285843 0.053846 0.159530
v 0.291290 0.053843 0.133209
v 0.293165 0.053840 0.105878
v 0.291490 0.053837 0.078224
v 0.286589 0.053835 0.051900
v 0.278654 0.053833 0.027111
v 0.267874 0.053831 0.004061
v 0.254442 0.053830 -0.017044
v 0.238548 0.053829 -0.036000
v 0.220382 0.053828 -0.052603
v 0.200137 0.053827 -0.066646
v 0.178003 0.053827 -0.077925
v 0.154171 0.053827 -0.086236
v 0.128831 0.053828 -0.091374
v 0.102176 0.053829 -0.093133
v 0.091133 0.053829 -0.092850
v 0.080500 0.053830 -0.092032
v 0.070269 0.053830 -0.090728
v 0.060435 0.053831 -0.088987
v 0.050989 0.053832 -0.086856
v 0.041925 0.053832 -0.084386
v 0.033236 0.053833 -0.081623
v 0.024916 0.053834 -0.078618
v 0.016956 0.053834 -0.075418
v 0.009350 0.053835 -0.072073
v 0.002092 0.053836 -0.068630
v -0.004826 0.053836 -0.065138
v 0.003336 0.053834 -0.088944
v 0.013714 0.053831 -0.112753
v 0.026147 0.053828 -0.136402
v 0.040475 0.053825 -0.159728
v 0.056540 0.053822 -0.182568
v 0.074182 0.053819 -0.204759
v 0.093239 0.053816 -0.226137
v 0.113554 0.053813 -0.246540
v 0.134966 0.053811 -0.265803
v 0.157315 0.053808 -0.283764
v 0.180442 0.053805 -0.300260
v 0.204187 0.053803 -0.315127
v -0.025831 0.053847 0.035861
v -0.015475 0.053846 0.029271
v -0.005817 0.053845 0.023473
v 0.003279 0.053844 0.018425
v 0.011948 0.053843 0.014085
v 0.020325 0.053842 0.010412
v 0.028545 0.053842 0.007363
v 0.036745 0.053841 0.004899
v 0.045059 0.053841 0.002975
v 0.053624 0.053840 0.001552
v 0.062573 0.053840 0.000588
v 0.072044 0.053839 0.000039
v 0.082171 0.053839 -0.000134
v 0.098049 0.053838 0.000787
v 0.113110 0.053838 0.003479
v 0.127248 0.053838 0.007837
v 0.140355 0.053838 0.013758
v 0.152323 0.053838 0.021137
v 0.163044 0.053838 0.029871
v 0.172411 0.053839 0.039854
v 0.180316 0.053840 0.050983
v 0.186652 0.053840 0.063153
v 0.191310 0.053841 0.076261
v 0.194184 0.053843 0.090202
v 0.195165 0.053844 0.104872
v 0.194261 0.053846 0.121151
v 0.191603 0.053847 0.136432
v 0.187272 0.053849 0.150638
v 0.181347 0.053850 0.163686
v 0.173909 0.053852 0.175499
v 0.165036 0.053853 0.185996
v 0.154809 0.053855 0.195096
v 0.143308 0.053856 0.202721
v 0.130613 0.053857 0.208791
v 0.116803 0.053858 0.213225
v 0.101959 0.053859 0.215943
v 0.086159 0.053860 0.216867
v 0.068544 0.053860 0.215443
v 0.051405 0.053861 0.211235
v 0.035051 0.053861 0.204333
v 0.019790 0.053860 0.194826
v 0.005932 0.053860 0.182806
v -0.006213 0.053859 0.168362
v -0.016338 0.053858 0.151585
v -0.024133 0.053856 0.132564
v -0.029288 0.053854 0.111392
v -0.031496 0.053852 0.088157
v -0.030447 0.053850 0.062950
vn 0.000043 1.000000 -0.000097
vn 0.000043 1.000000 -0.000099
vn 0.000043 1.000000 -0.000098
vn 0.000043 1.000000 -0.000095
vn 0.000043 1.000000 -0.000096
vn 0.000042 1.000000 -0.000101
s off
f 73//1 1//1 2//1
f 3//1 73//1 2//1
f 4//1 73//1 3//1
f 4//1 72//1 73//1
f 4//1 71//1 72//1
f 5//1 71//1 4//1
f 5//1 70//1 71//1
f 5//1 69//1 70//1
f 6//1 69//1 5//1
f 6//1 68//1 69//1
f 6//1 67//1 68//1
f 7//1 67//1 6//1
f 7//1 66//1 67//1
f 7//1 65//1 66//1
f 8//1 65//1 7//1
f 8//1 64//1 65//1
f 9//1 64//1 8//1
f 9//1 63//1 64//1
f 9//1 62//1 63//1
f 10//1 62//1 9//1
f 50//2 48//2 49//2
f 51//3 48//3 50//3
f 52//4 48//4 51//4
f 52//3 47//3 48//3
f 53//3 47//3 52//3
f 54//1 47//1 53//1
f 10//1 61//1 62//1
f 55//3 47//3 54//3
f 55//1 46//1 47//1
f 56//1 46//1 55//1
f 57//1 46//1 56//1
f 58//1 46//1 57//1
f 58//1 45//1 46//1
f 59//1 45//1 58//1
f 60//1 45//1 59//1
f 61//1 45//1 60//1
f 61//1 44//1 45//1
f 10//1 44//1 61//1
f 11//1 44//1 10//1
f 11//1 43//1 44//1
f 11//1 42//1 43//1
f 12//1 83//1 11//1
f 83//1 84//1 11//1
f 84//5 85//5 11//5
f 85//1 86//1 11//1
f 86//1 42//1 11//1
f 86//1 41//1 42//1
f 87//5 41//5 86//5
f 88//1 41//1 87//1
f 12//6 82//6 83//6
f 12//3 81//3 82//3
f 89//5 41//5 88//5
f 89//1 40//1 41//1
f 12//3 80//3 81//3
f 12//1 79//1 80//1
f 90//3 40//3 89//3
f 12//1 78//1 79//1
f 91//1 40//1 90//1
f 12//1 77//1 78//1
f 12//1 76//1 77//1
f 92//1 40//1 91//1
f 12//1 75//1 76//1
f 13//1 75//1 12//1
f 92//1 39//1 40//1
f 13//1 74//1 75//1
f 93//1 39//1 92//1
f 13//1 121//1 74//1
f 94//1 39//1 93//1
f 95//1 39//1 94//1
f 95//1 38//1 39//1
f 13//1 120//1 121//1
f 96//1 38//1 95//1
f 14//1 120//1 13//1
f 97//1 38//1 96//1
f 97//1 37//1 38//1
f 14//1 119//1 120//1
f 98//1 37//1 97//1
f 15//1 119//1 14//1
f 99//1 37//1 98//1
f 99//1 36//1 37//1
f 15//1 118//1 119//1
f 100//1 36//1 99//1
f 15//1 117//1 118//1
f 100//1 35//1 36//1
f 16//1 117//1 15//1
f 101//1 35//1 100//1
f 102//1 35//1 101//1
f 16//1 116//1 117//1
f 102//1 34//1 35//1
f 103//1 34//1 102//1
f 17//1 116//1 16//1
f 17//1 115//1 116//1
f 104//1 34//1 103//1
f 17//1 114//1 115//1
f 104//1 33//1 34//1
f 105//1 33//1 104//1
f 18//1 114//1 17//1
f 18//1 113//1 114//1
f 106//1 33//1 105//1
f 107//1 33//1 106//1
f 18//1 112//1 113//1
f 107//1 32//1 33//1
f 108//1 32//1 107//1
f 18//1 111//1 112//1
f 109//1 32//1 108//1
f 18//3 110//3 111//3
f 110//1 32//1 109//1
f 18//1 32//1 110//1
f 19//1 32//1 18//1
f 19//1 31//1 32//1
f 20//1 31//1 19//1
f 20//1 30//1 31//1
f 21//1 30//1 20//1
f 21//1 29//1 30//1
f 22//1 29//1 21//1
f 22//1 28//1 29//1
f 23//1 28//1 22//1
f 23//1 27//1 28//1
f 24//1 27//1 23//1
f 24//1 26//1 27//1
f 25//3 26//3 24//3
