# Blender v2.63 (sub 0) OBJ File: ''
# www.blender.org
o Text
v 0.296165 0.053841 0.116878
v 0.295499 0.053839 0.099786
v 0.293504 0.053838 0.083063
v 0.290183 0.053836 0.066784
v 0.285538 0.053835 0.051025
v 0.279575 0.053834 0.035864
v 0.272295 0.053833 0.021376
v 0.263702 0.053832 0.007639
v 0.253801 0.053831 -0.005273
v 0.242594 0.053830 -0.017281
v 0.230084 0.053830 -0.028311
v 0.216276 0.053829 -0.038285
v 0.201173 0.053829 -0.047127
v 0.215030 0.053828 -0.056988
v 0.227610 0.053826 -0.067519
v 0.238925 0.053824 -0.078641
v 0.248990 0.053823 -0.090273
v 0.257820 0.053821 -0.102336
v 0.265427 0.053820 -0.114749
v 0.271826 0.053818 -0.127433
v 0.277030 0.053817 -0.140309
v 0.281054 0.053815 -0.153295
v 0.283911 0.053814 -0.166313
v 0.285615 0.053813 -0.179282
v 0.286181 0.053811 -0.192123
v 0.284424 0.053809 -0.219757
v 0.279281 0.053806 -0.246026
v 0.270951 0.053804 -0.270733
v 0.259631 0.053803 -0.293680
v 0.245519 0.053801 -0.314668
v 0.228813 0.053800 -0.333501
v 0.209712 0.053799 -0.349979
v 0.188412 0.053799 -0.363906
v 0.165112 0.053799 -0.375082
v 0.140010 0.053799 -0.383311
v 0.113304 0.053800 -0.388394
v 0.085191 0.053801 -0.390134
v 0.056081 0.053802 -0.388417
v 0.028390 0.053804 -0.383396
v 0.002331 0.053806 -0.375263
v -0.021884 0.053808 -0.364213
v -0.044044 0.053810 -0.350441
v -0.063937 0.053813 -0.334141
v -0.081350 0.053815 -0.315508
v -0.096073 0.053818 -0.294736
v -0.107893 0.053821 -0.272019
v -0.116599 0.053823 -0.247552
v -0.121978 0.053826 -0.221529
v -0.123819 0.053829 -0.194145
v -0.123200 0.053830 -0.179775
v -0.121362 0.053831 -0.165686
v -0.118337 0.053833 -0.151910
v -0.114155 0.053834 -0.138477
v -0.108849 0.053835 -0.125420
v -0.102448 0.053836 -0.112768
v -0.094985 0.053837 -0.100554
v -0.086491 0.053837 -0.088809
v -0.076997 0.053838 -0.077564
v -0.066534 0.053839 -0.066850
v -0.055134 0.053839 -0.056698
v -0.042827 0.053840 -0.047140
v -0.058390 0.053841 -0.037326
v -0.072582 0.053843 -0.026873
v -0.085407 0.053844 -0.015768
v -0.096866 0.053846 -0.003995
v -0.106965 0.053848 0.008458
v -0.115705 0.053849 0.021606
v -0.123092 0.053851 0.035462
v -0.129128 0.053853 0.050040
v -0.133817 0.053854 0.065355
v -0.137162 0.053856 0.081420
v -0.139167 0.053858 0.098248
v -0.139835 0.053860 0.115855
v -0.137876 0.053862 0.142569
v -0.132153 0.053864 0.168073
v -0.122902 0.053866 0.192152
v -0.110359 0.053868 0.214597
v -0.094761 0.053869 0.235194
v -0.076343 0.053870 0.253733
v -0.055341 0.053871 0.270001
v -0.031992 0.053871 0.283786
v -0.006532 0.053871 0.294877
v 0.020803 0.053871 0.303062
v 0.049777 0.053870 0.308129
v 0.080154 0.053869 0.309866
v 0.110033 0.053867 0.308152
v 0.138516 0.053866 0.303142
v 0.165374 0.053864 0.295043
v 0.190378 0.053862 0.284057
v 0.213299 0.053859 0.270391
v 0.233907 0.053857 0.254249
v 0.251974 0.053854 0.235837
v 0.267271 0.053852 0.215358
v 0.279567 0.053849 0.193017
v 0.288634 0.053846 0.169021
v 0.294243 0.053844 0.143573
v 0.188181 0.053815 -0.194128
v 0.187202 0.053817 -0.180567
v 0.184351 0.053818 -0.167476
v 0.179757 0.053820 -0.154988
v 0.173549 0.053821 -0.143240
v 0.165854 0.053822 -0.132367
v 0.156802 0.053824 -0.122505
v 0.146521 0.053825 -0.113788
v 0.135139 0.053826 -0.106353
v 0.122785 0.053827 -0.100335
v 0.109588 0.053828 -0.095868
v 0.095675 0.053829 -0.093090
v 0.081176 0.053830 -0.092134
v 0.066886 0.053830 -0.093111
v 0.053111 0.053831 -0.095950
v 0.039989 0.053831 -0.100511
v 0.027658 0.053831 -0.106655
v 0.016258 0.053831 -0.114244
v 0.005927 0.053830 -0.123138
v -0.003195 0.053829 -0.133198
v -0.010970 0.053829 -0.144287
v -0.017259 0.053828 -0.156264
v -0.021922 0.053827 -0.168991
v -0.024822 0.053826 -0.182329
v -0.025819 0.053824 -0.196139
v -0.024915 0.053823 -0.210941
v -0.022257 0.053821 -0.224801
v -0.017926 0.053820 -0.237655
v -0.012001 0.053819 -0.249435
v -0.004563 0.053817 -0.260076
v 0.004310 0.053816 -0.269513
v 0.014537 0.053815 -0.277678
v 0.026038 0.053814 -0.284507
v 0.038733 0.053812 -0.289933
v 0.052543 0.053812 -0.293890
v 0.067387 0.053811 -0.296312
v 0.083186 0.053810 -0.297134
v 0.098067 0.053809 -0.296233
v 0.112145 0.053809 -0.293600
v 0.125327 0.053809 -0.289335
v 0.137519 0.053809 -0.283538
v 0.148628 0.053809 -0.276311
v 0.158560 0.053809 -0.267755
v 0.167221 0.053810 -0.257969
v 0.174517 0.053811 -0.247055
v 0.180355 0.053812 -0.235113
v 0.184641 0.053813 -0.222244
v 0.187281 0.053814 -0.208549
v 0.198165 0.053844 0.108872
v 0.197312 0.053846 0.122971
v 0.194761 0.053847 0.136664
v 0.190522 0.053849 0.149794
v 0.184607 0.053850 0.162205
v 0.177024 0.053852 0.173741
v 0.167786 0.053853 0.184246
v 0.156902 0.053854 0.193563
v 0.144382 0.053856 0.201536
v 0.130238 0.053857 0.208010
v 0.114479 0.053858 0.212826
v 0.097116 0.053859 0.215831
v 0.078159 0.053860 0.216866
v 0.061093 0.053861 0.215943
v 0.044965 0.053861 0.213239
v 0.029878 0.053861 0.208848
v 0.015938 0.053861 0.202863
v 0.003247 0.053861 0.195378
v -0.008089 0.053861 0.186487
v -0.017967 0.053860 0.176283
v -0.026282 0.053859 0.164861
v -0.032931 0.053858 0.152313
v -0.037809 0.053857 0.138735
v -0.040812 0.053856 0.124219
v -0.041835 0.053855 0.108860
v -0.040847 0.053853 0.093290
v -0.037935 0.053852 0.078638
v -0.033176 0.053850 0.064985
v -0.026647 0.053849 0.052416
v -0.018423 0.053847 0.041014
v -0.008581 0.053846 0.030861
v 0.002803 0.053844 0.022043
v 0.015651 0.053843 0.014641
v 0.029889 0.053842 0.008739
v 0.045439 0.053841 0.004420
v 0.062225 0.053840 0.001768
v 0.080171 0.053839 0.000866
v 0.096987 0.053838 0.001808
v 0.112870 0.053838 0.004562
v 0.127717 0.053838 0.009025
v 0.141429 0.053838 0.015092
v 0.153905 0.053838 0.022658
v 0.165044 0.053838 0.031621
v 0.174745 0.053839 0.041875
v 0.182909 0.053840 0.053316
v 0.189433 0.053841 0.065841
v 0.194217 0.053842 0.079344
v 0.197162 0.053843 0.093723
vn 0.000043 1.000000 -0.000098
vn 0.000043 1.000000 -0.000097
vn 0.000043 1.000000 -0.000095
vn 0.000043 1.000000 -0.000096
s off
f 38//1 36//1 37//1
f 39//2 36//2 38//2
f 39//2 35//2 36//2
f 40//2 35//2 39//2
f 40//2 34//2 35//2
f 41//2 34//2 40//2
f 41//2 33//2 34//2
f 42//2 33//2 41//2
f 42//2 32//2 33//2
f 43//2 32//2 42//2
f 43//2 31//2 32//2
f 44//2 31//2 43//2
f 44//2 30//2 31//2
f 45//2 30//2 44//2
f 45//2 133//2 30//2
f 133//2 29//2 30//2
f 45//3 132//3 133//3
f 134//4 29//4 133//4
f 45//2 131//2 132//2
f 135//1 29//1 134//1
f 46//2 131//2 45//2
f 46//2 130//2 131//2
f 135//2 28//2 29//2
f 136//2 28//2 135//2
f 46//2 129//2 130//2
f 137//2 28//2 136//2
f 46//2 128//2 129//2
f 138//2 28//2 137//2
f 46//2 127//2 128//2
f 139//2 28//2 138//2
f 47//2 127//2 46//2
f 139//2 27//2 28//2
f 47//2 126//2 127//2
f 140//2 27//2 139//2
f 47//2 125//2 126//2
f 141//2 27//2 140//2
f 47//2 124//2 125//2
f 48//2 124//2 47//2
f 142//2 27//2 141//2
f 142//2 26//2 27//2
f 48//2 123//2 124//2
f 143//2 26//2 142//2
f 48//2 122//2 123//2
f 144//2 26//2 143//2
f 49//2 122//2 48//2
f 144//2 25//2 26//2
f 49//2 121//2 122//2
f 97//2 25//2 144//2
f 49//2 120//2 121//2
f 50//2 120//2 49//2
f 98//2 25//2 97//2
f 98//2 24//2 25//2
f 50//2 119//2 120//2
f 99//2 24//2 98//2
f 51//2 119//2 50//2
f 99//2 23//2 24//2
f 51//2 118//2 119//2
f 100//2 23//2 99//2
f 100//2 22//2 23//2
f 52//2 118//2 51//2
f 52//2 117//2 118//2
f 101//2 22//2 100//2
f 101//2 21//2 22//2
f 53//2 117//2 52//2
f 53//2 116//2 117//2
f 102//2 21//2 101//2
f 102//2 20//2 21//2
f 54//2 116//2 53//2
f 54//2 115//2 116//2
f 103//2 20//2 102//2
f 103//2 19//2 20//2
f 55//2 115//2 54//2
f 55//2 114//2 115//2
f 104//2 19//2 103//2
f 104//2 18//2 19//2
f 55//2 113//2 114//2
f 105//2 18//2 104//2
f 56//2 113//2 55//2
f 56//2 112//2 113//2
f 106//2 18//2 105//2
f 106//2 17//2 18//2
f 57//2 112//2 56//2
f 57//2 111//2 112//2
f 107//1 17//1 106//1
f 57//2 110//2 111//2
f 108//4 17//4 107//4
f 57//2 109//2 110//2
f 109//1 17//1 108//1
f 57//2 17//2 109//2
f 57//2 16//2 17//2
f 58//2 16//2 57//2
f 58//2 15//2 16//2
f 59//2 15//2 58//2
f 59//2 14//2 15//2
f 60//2 14//2 59//2
f 60//2 13//2 14//2
f 61//2 13//2 60//2
f 62//2 13//2 61//2
f 62//2 12//2 13//2
f 62//2 11//2 12//2
f 63//2 11//2 62//2
f 63//2 10//2 11//2
f 64//2 10//2 63//2
f 64//2 9//2 10//2
f 65//2 9//2 64//2
f 65//2 181//2 9//2
f 181//2 8//2 9//2
f 66//2 181//2 65//2
f 66//3 180//3 181//3
f 182//1 8//1 181//1
f 66//4 179//4 180//4
f 183//2 8//2 182//2
f 66//2 178//2 179//2
f 184//2 8//2 183//2
f 184//2 7//2 8//2
f 67//2 178//2 66//2
f 67//2 177//2 178//2
f 185//2 7//2 184//2
f 67//2 176//2 177//2
f 186//2 7//2 185//2
f 186//2 6//2 7//2
f 68//2 176//2 67//2
f 68//2 175//2 176//2
f 187//2 6//2 186//2
f 68//2 174//2 175//2
f 188//2 6//2 187//2
f 69//2 174//2 68//2
f 188//2 5//2 6//2
f 69//2 173//2 174//2
f 189//2 5//2 188//2
f 70//2 173//2 69//2
f 189//2 4//2 5//2
f 70//2 172//2 173//2
f 190//2 4//2 189//2
f 70//2 171//2 172//2
f 71//2 171//2 70//2
f 191//2 4//2 190//2
f 191//2 3//2 4//2
f 71//2 170//2 171//2
f 192//2 3//2 191//2
f 72//2 170//2 71//2
f 192//2 2//2 3//2
f 72//2 169//2 170//2
f 145//2 2//2 192//2
f 73//2 169//2 72//2
f 145//2 1//2 2//2
f 73//2 168//2 169//2
f 146//2 1//2 145//2
f 74//2 168//2 73//2
f 96//2 1//2 146//2
f 147//2 96//2 146//2
f 74//2 167//2 168//2
f 148//2 96//2 147//2
f 74//2 166//2 167//2
f 75//2 166//2 74//2
f 148//2 95//2 96//2
f 149//2 95//2 148//2
f 75//2 165//2 166//2
f 150//2 95//2 149//2
f 75//2 164//2 165//2
f 76//2 164//2 75//2
f 150//2 94//2 95//2
f 151//2 94//2 150//2
f 76//2 163//2 164//2
f 152//2 94//2 151//2
f 76//2 162//2 163//2
f 77//2 162//2 76//2
f 152//2 93//2 94//2
f 153//2 93//2 152//2
f 77//2 161//2 162//2
f 154//2 93//2 153//2
f 77//2 160//2 161//2
f 155//2 93//2 154//2
f 77//4 159//4 160//4
f 156//1 93//1 155//1
f 77//2 158//2 159//2
f 78//2 158//2 77//2
f 156//2 92//2 93//2
f 157//2 92//2 156//2
f 78//1 157//1 158//1
f 78//2 92//2 157//2
f 79//2 92//2 78//2
f 79//2 91//2 92//2
f 80//2 91//2 79//2
f 80//2 90//2 91//2
f 81//2 90//2 80//2
f 81//2 89//2 90//2
f 82//2 89//2 81//2
f 82//2 88//2 89//2
f 83//2 88//2 82//2
f 83//2 87//2 88//2
f 84//2 87//2 83//2
f 84//2 86//2 87//2
f 85//1 86//1 84//1
